<?xml version="1.0" standalone="no"?>
<!DOCTYPE svg PUBLIC "-//W3C//DTD SVG 20010904//EN"
 "http://www.w3.org/TR/2001/REC-SVG-20010904/DTD/svg10.dtd">
<svg version="1.0" xmlns="http://www.w3.org/2000/svg"
 width="832.000000pt" height="832.000000pt" viewBox="0 0 832.000000 832.000000"
 preserveAspectRatio="xMidYMid meet">
<metadata>
Created by potrace 1.14, written by Peter Selinger 2001-2017
</metadata>
<g transform="translate(0.000000,832.000000) scale(0.100000,-0.100000)"
fill="#000000" stroke="none">
<path d="M6529 7225 c-4 -3 -15 -7 -26 -10 -79 -15 -183 -97 -224 -177 -39
-77 -55 -183 -36 -248 3 -8 8 -30 12 -47 4 -18 14 -38 21 -44 8 -6 14 -17 14
-23 1 -15 58 -78 100 -109 19 -14 62 -34 95 -46 262 -88 524 144 471 419 -24
123 -137 244 -260 277 -32 9 -160 15 -167 8z"/>
<path d="M1617 5874 c-1 -1 -29 -4 -62 -5 -33 -2 -64 -5 -70 -8 -5 -3 -26 -6
-45 -8 -63 -5 -243 -55 -350 -98 -244 -97 -442 -232 -633 -432 -27 -29 -57
-62 -65 -75 -9 -13 -23 -30 -31 -38 -52 -53 -197 -308 -248 -435 -36 -93 -70
-221 -99 -385 -10 -60 -13 -362 -3 -430 5 -36 11 -78 14 -95 7 -56 24 -130 34
-158 6 -15 13 -38 15 -50 9 -46 60 -175 102 -258 24 -47 44 -90 44 -96 0 -6 3
-13 8 -15 4 -1 34 -43 67 -93 33 -49 64 -95 70 -101 5 -6 29 -33 52 -60 60
-71 101 -112 186 -186 71 -62 237 -177 302 -208 17 -8 32 -17 35 -20 6 -7 127
-58 210 -89 46 -17 84 -29 123 -37 4 -1 8 -2 10 -4 7 -6 183 -40 242 -47 67
-7 347 -11 360 -4 5 3 23 6 40 8 16 1 57 7 90 12 33 6 74 13 90 16 17 3 52 13
78 21 26 9 53 17 60 18 7 2 19 6 27 9 8 3 44 17 80 30 84 31 164 69 168 79 2
4 9 8 15 8 7 0 40 18 75 40 34 22 67 40 72 40 4 0 10 3 12 8 2 4 30 27 63 52
215 160 394 377 517 630 36 72 86 195 93 229 2 9 11 41 20 71 8 30 17 69 20
85 3 17 10 53 15 80 32 166 27 468 -10 615 -5 19 -12 50 -15 69 -3 19 -8 38
-11 43 -3 4 -7 18 -9 29 -6 29 -24 89 -35 114 -5 11 -21 49 -35 84 -15 35 -33
74 -41 86 -8 12 -12 24 -9 27 3 3 -1 11 -10 18 -8 7 -15 17 -15 22 0 5 -22 43
-50 85 -27 42 -50 79 -50 84 0 4 -3 9 -7 11 -5 2 -27 28 -50 58 -100 132 -271
286 -434 392 -160 104 -412 203 -592 233 -17 3 -58 10 -91 16 -52 9 -332 20
-339 13z m368 -368 c167 -36 348 -109 475 -190 63 -40 57 -35 135 -101 107
-88 265 -264 265 -294 0 -6 4 -11 8 -11 5 0 19 -19 31 -42 12 -24 32 -61 44
-83 33 -59 84 -189 107 -277 33 -120 44 -210 44 -353 0 -109 -6 -166 -28 -295
-7 -38 -47 -168 -67 -216 -7 -16 -13 -31 -13 -34 -1 -3 -19 -39 -40 -80 -70
-133 -146 -238 -251 -345 -66 -68 -186 -165 -204 -165 -6 0 -11 -4 -11 -9 0
-5 -12 -16 -27 -24 -16 -8 -62 -32 -103 -54 -73 -39 -198 -90 -236 -97 -10 -2
-39 -9 -64 -16 -55 -15 -71 -18 -135 -28 -63 -9 -337 -9 -390 1 -22 4 -56 10
-75 13 -27 5 -97 24 -205 58 -42 13 -124 52 -220 104 -128 71 -363 285 -411
375 -8 15 -19 27 -24 27 -6 0 -10 4 -10 10 0 5 -12 26 -26 47 -23 35 -78 144
-118 234 -9 20 -27 79 -40 130 -37 139 -46 208 -49 344 -2 83 1 121 18 245 4
25 8 53 9 62 1 10 5 21 9 24 4 4 7 16 7 27 0 54 91 273 155 373 19 30 35 56
35 59 0 13 139 174 202 233 58 55 193 157 247 186 167 91 341 152 486 171 27
3 51 8 53 10 12 12 345 -3 417 -19z"/>
<path d="M6477 5874 c-1 -1 -31 -5 -65 -8 -93 -9 -248 -43 -344 -75 -46 -15
-90 -29 -98 -32 -31 -9 -238 -114 -290 -148 -175 -113 -341 -265 -453 -416
-20 -27 -40 -54 -45 -60 -4 -5 -30 -46 -57 -90 -92 -151 -162 -325 -204 -507
-63 -269 -55 -587 20 -848 7 -25 13 -47 13 -50 1 -3 6 -18 13 -35 6 -16 24
-61 38 -100 124 -321 399 -641 712 -829 144 -86 366 -175 508 -202 11 -2 45
-9 75 -14 188 -36 458 -32 650 10 25 6 56 12 70 14 14 3 26 5 28 7 1 1 5 2 10
3 95 22 341 129 427 186 17 11 41 25 55 32 14 7 27 15 30 18 3 3 37 30 75 60
135 105 205 175 308 305 26 33 54 69 63 80 9 11 23 35 32 53 9 17 19 32 23 32
4 0 10 11 13 25 4 14 11 25 16 25 6 0 10 4 10 10 0 5 20 51 46 102 25 51 45
94 44 96 -1 1 8 28 20 60 29 76 64 209 76 287 19 123 22 162 21 292 0 119 -13
263 -32 348 -50 228 -124 405 -251 598 -36 55 -71 106 -77 113 -7 7 -43 48
-82 91 -274 307 -661 509 -1076 559 -51 6 -316 13 -322 8z m328 -358 c128 -18
311 -78 434 -143 61 -33 172 -104 198 -127 6 -6 25 -21 41 -34 41 -31 132
-122 173 -173 19 -23 39 -46 44 -53 41 -44 148 -234 182 -321 147 -378 123
-813 -64 -1155 -36 -65 -107 -175 -127 -196 -6 -7 -26 -30 -45 -54 -46 -56
-85 -95 -156 -156 -69 -59 -215 -158 -215 -147 0 4 -4 3 -8 -3 -17 -25 -206
-102 -331 -134 -169 -44 -431 -51 -591 -15 -14 3 -37 7 -52 10 -64 12 -199 60
-287 102 -146 70 -246 142 -375 268 -159 154 -300 395 -352 598 -1 4 -2 8 -4
10 -2 3 -7 26 -15 72 -4 22 -9 43 -11 46 -8 14 -18 149 -18 244 0 214 39 396
125 582 21 44 102 184 121 208 4 6 29 37 55 70 99 127 264 265 413 348 125 69
238 107 455 155 46 10 336 9 410 -2z"/>
<path d="M1625 1796 c-55 -18 -125 -54 -125 -66 0 -6 -5 -10 -10 -10 -30 0
-106 -120 -127 -200 -5 -20 -5 -130 1 -155 10 -46 57 -133 91 -168 203 -209
547 -120 619 161 11 43 13 125 3 162 -16 63 -23 79 -43 111 -87 139 -265 211
-409 165z"/>
</g>
</svg>
